<?xml version="1.0" encoding="UTF-8"?>
<svg width="237px" height="152px" viewBox="0 0 237 152" version="1.1" xmlns="http://www.w3.org/2000/svg" xmlns:xlink="http://www.w3.org/1999/xlink">
    <title>Cash Card</title>
    <defs>
        <linearGradient x1="50%" y1="0%" x2="50%" y2="100%" id="linearGradient-1">
            <stop stop-color="#000000" offset="0%"></stop>
            <stop stop-color="#4A0606" offset="100%"></stop>
        </linearGradient>
        <rect id="path-2" x="0.883903631" y="0.457937458" width="235.521127" height="151.406439" rx="12"></rect>
        <linearGradient x1="37.5566674%" y1="94.3560956%" x2="55.8990393%" y2="21.0991309%" id="linearGradient-4">
            <stop stop-color="#292827" offset="0%"></stop>
            <stop stop-color="#680012" offset="100%"></stop>
        </linearGradient>
        <linearGradient x1="37.3066132%" y1="94.3560956%" x2="56.0175831%" y2="21.0991309%" id="linearGradient-5">
            <stop stop-color="#292827" offset="0%"></stop>
            <stop stop-color="#680012" offset="100%"></stop>
        </linearGradient>
        <linearGradient x1="36.9826886%" y1="94.3560956%" x2="56.1711468%" y2="21.0991309%" id="linearGradient-6">
            <stop stop-color="#292827" offset="0%"></stop>
            <stop stop-color="#680012" offset="100%"></stop>
        </linearGradient>
        <linearGradient x1="36.5749476%" y1="94.3560956%" x2="56.3644455%" y2="21.0991309%" id="linearGradient-7">
            <stop stop-color="#292827" offset="0%"></stop>
            <stop stop-color="#680012" offset="100%"></stop>
        </linearGradient>
        <linearGradient x1="36.0306905%" y1="94.3560956%" x2="56.6224627%" y2="21.0991309%" id="linearGradient-8">
            <stop stop-color="#292827" offset="0%"></stop>
            <stop stop-color="#680012" offset="100%"></stop>
        </linearGradient>
        <linearGradient x1="35.3039694%" y1="94.3560956%" x2="56.9669811%" y2="21.0991309%" id="linearGradient-9">
            <stop stop-color="#292827" offset="0%"></stop>
            <stop stop-color="#680012" offset="100%"></stop>
        </linearGradient>
        <linearGradient x1="34.2787274%" y1="94.3560956%" x2="57.4530199%" y2="21.0991309%" id="linearGradient-10">
            <stop stop-color="#292827" offset="0%"></stop>
            <stop stop-color="#680012" offset="100%"></stop>
        </linearGradient>
        <linearGradient x1="32.7286941%" y1="94.3560956%" x2="58.1878478%" y2="21.0991309%" id="linearGradient-11">
            <stop stop-color="#292827" offset="0%"></stop>
            <stop stop-color="#680012" offset="100%"></stop>
        </linearGradient>
        <linearGradient x1="34.2492016%" y1="94.3560956%" x2="57.4670173%" y2="21.0991309%" id="linearGradient-12">
            <stop stop-color="#292827" offset="0%"></stop>
            <stop stop-color="#680012" offset="100%"></stop>
        </linearGradient>
        <linearGradient x1="34.3225623%" y1="94.3560956%" x2="57.432239%" y2="21.0991309%" id="linearGradient-13">
            <stop stop-color="#292827" offset="0%"></stop>
            <stop stop-color="#680012" offset="100%"></stop>
        </linearGradient>
        <linearGradient x1="34.3643819%" y1="94.3560956%" x2="57.4124135%" y2="21.0991309%" id="linearGradient-14">
            <stop stop-color="#292827" offset="0%"></stop>
            <stop stop-color="#680012" offset="100%"></stop>
        </linearGradient>
        <linearGradient x1="34.3805208%" y1="94.3560956%" x2="57.4047625%" y2="21.0991309%" id="linearGradient-15">
            <stop stop-color="#292827" offset="0%"></stop>
            <stop stop-color="#680012" offset="100%"></stop>
        </linearGradient>
        <linearGradient x1="34.3323553%" y1="94.3560956%" x2="57.4275964%" y2="21.0991309%" id="linearGradient-16">
            <stop stop-color="#292827" offset="0%"></stop>
            <stop stop-color="#680012" offset="100%"></stop>
        </linearGradient>
        <linearGradient x1="34.2138501%" y1="94.3560956%" x2="57.4837764%" y2="21.0991309%" id="linearGradient-17">
            <stop stop-color="#292827" offset="0%"></stop>
            <stop stop-color="#680012" offset="100%"></stop>
        </linearGradient>
        <linearGradient x1="33.9537399%" y1="94.3560956%" x2="57.6070875%" y2="21.0991309%" id="linearGradient-18">
            <stop stop-color="#292827" offset="0%"></stop>
            <stop stop-color="#680012" offset="100%"></stop>
        </linearGradient>
        <linearGradient x1="33.5230253%" y1="94.3560956%" x2="57.8112773%" y2="21.0991309%" id="linearGradient-19">
            <stop stop-color="#292827" offset="0%"></stop>
            <stop stop-color="#680012" offset="100%"></stop>
        </linearGradient>
        <linearGradient x1="33.1132346%" y1="94.3560956%" x2="58.0055478%" y2="21.0991309%" id="linearGradient-20">
            <stop stop-color="#292827" offset="0%"></stop>
            <stop stop-color="#680012" offset="100%"></stop>
        </linearGradient>
        <linearGradient x1="32.0349715%" y1="94.3560956%" x2="58.5167225%" y2="21.0991309%" id="linearGradient-21">
            <stop stop-color="#292827" offset="0%"></stop>
            <stop stop-color="#680012" offset="100%"></stop>
        </linearGradient>
        <linearGradient x1="30.9535224%" y1="94.3560956%" x2="59.0294075%" y2="21.0991309%" id="linearGradient-22">
            <stop stop-color="#292827" offset="0%"></stop>
            <stop stop-color="#680012" offset="100%"></stop>
        </linearGradient>
        <linearGradient x1="30.1141224%" y1="94.3560956%" x2="59.4273438%" y2="21.0991309%" id="linearGradient-23">
            <stop stop-color="#292827" offset="0%"></stop>
            <stop stop-color="#680012" offset="100%"></stop>
        </linearGradient>
        <linearGradient x1="197.435584%" y1="4.02560884%" x2="36.3784651%" y2="50%" id="linearGradient-24">
            <stop stop-color="#292827" offset="0%"></stop>
            <stop stop-color="#680012" offset="100%"></stop>
        </linearGradient>
        <linearGradient x1="199.584907%" y1="4.02560884%" x2="36.1798897%" y2="50%" id="linearGradient-25">
            <stop stop-color="#292827" offset="0%"></stop>
            <stop stop-color="#680012" offset="100%"></stop>
        </linearGradient>
        <linearGradient x1="202.334833%" y1="4.02560884%" x2="35.9258248%" y2="50%" id="linearGradient-26">
            <stop stop-color="#292827" offset="0%"></stop>
            <stop stop-color="#680012" offset="100%"></stop>
        </linearGradient>
        <linearGradient x1="206.013008%" y1="4.02560884%" x2="35.5859992%" y2="50%" id="linearGradient-27">
            <stop stop-color="#292827" offset="0%"></stop>
            <stop stop-color="#680012" offset="100%"></stop>
        </linearGradient>
        <linearGradient x1="207.825622%" y1="5.05882547%" x2="35.4185323%" y2="50%" id="linearGradient-28">
            <stop stop-color="#292827" offset="0%"></stop>
            <stop stop-color="#680012" offset="100%"></stop>
        </linearGradient>
        <linearGradient x1="207.825622%" y1="7.31232168%" x2="35.4185323%" y2="50%" id="linearGradient-29">
            <stop stop-color="#292827" offset="0%"></stop>
            <stop stop-color="#680012" offset="100%"></stop>
        </linearGradient>
        <linearGradient x1="207.825622%" y1="10.1142226%" x2="35.4185323%" y2="50%" id="linearGradient-30">
            <stop stop-color="#292827" offset="0%"></stop>
            <stop stop-color="#680012" offset="100%"></stop>
        </linearGradient>
        <linearGradient x1="207.825622%" y1="9.01352016%" x2="35.4185323%" y2="50%" id="linearGradient-31">
            <stop stop-color="#292827" offset="0%"></stop>
            <stop stop-color="#680012" offset="100%"></stop>
        </linearGradient>
        <linearGradient x1="207.825622%" y1="9.60746075%" x2="35.4185323%" y2="50%" id="linearGradient-32">
            <stop stop-color="#292827" offset="0%"></stop>
            <stop stop-color="#680012" offset="100%"></stop>
        </linearGradient>
        <linearGradient x1="207.825622%" y1="11.9979137%" x2="35.4185323%" y2="50%" id="linearGradient-33">
            <stop stop-color="#292827" offset="0%"></stop>
            <stop stop-color="#680012" offset="100%"></stop>
        </linearGradient>
        <linearGradient x1="207.825622%" y1="16.4281122%" x2="35.4185323%" y2="50%" id="linearGradient-34">
            <stop stop-color="#292827" offset="0%"></stop>
            <stop stop-color="#680012" offset="100%"></stop>
        </linearGradient>
        <linearGradient x1="207.825622%" y1="22.6169007%" x2="35.4185323%" y2="50%" id="linearGradient-35">
            <stop stop-color="#292827" offset="0%"></stop>
            <stop stop-color="#680012" offset="100%"></stop>
        </linearGradient>
        <linearGradient x1="44.8550251%" y1="111.658652%" x2="56.3708708%" y2="60.2043057%" id="linearGradient-36">
            <stop stop-color="#292827" offset="0%"></stop>
            <stop stop-color="#680012" offset="100%"></stop>
        </linearGradient>
        <linearGradient x1="44.8480534%" y1="111.658652%" x2="56.3795036%" y2="60.2043057%" id="linearGradient-37">
            <stop stop-color="#292827" offset="0%"></stop>
            <stop stop-color="#680012" offset="100%"></stop>
        </linearGradient>
        <linearGradient x1="44.8364167%" y1="111.658652%" x2="56.393913%" y2="60.2043057%" id="linearGradient-38">
            <stop stop-color="#292827" offset="0%"></stop>
            <stop stop-color="#680012" offset="100%"></stop>
        </linearGradient>
        <linearGradient x1="44.8227207%" y1="111.658652%" x2="56.4108723%" y2="60.2043057%" id="linearGradient-39">
            <stop stop-color="#292827" offset="0%"></stop>
            <stop stop-color="#680012" offset="100%"></stop>
        </linearGradient>
        <linearGradient x1="44.8019155%" y1="111.658652%" x2="56.4366348%" y2="60.2043057%" id="linearGradient-40">
            <stop stop-color="#292827" offset="0%"></stop>
            <stop stop-color="#680012" offset="100%"></stop>
        </linearGradient>
        <linearGradient x1="44.7744703%" y1="111.658652%" x2="56.4706195%" y2="60.2043057%" id="linearGradient-41">
            <stop stop-color="#292827" offset="0%"></stop>
            <stop stop-color="#680012" offset="100%"></stop>
        </linearGradient>
        <linearGradient x1="44.7539398%" y1="111.658652%" x2="56.4960418%" y2="60.2043057%" id="linearGradient-42">
            <stop stop-color="#292827" offset="0%"></stop>
            <stop stop-color="#680012" offset="100%"></stop>
        </linearGradient>
        <linearGradient x1="44.6942587%" y1="111.658652%" x2="56.5699431%" y2="60.2043057%" id="linearGradient-43">
            <stop stop-color="#292827" offset="0%"></stop>
            <stop stop-color="#680012" offset="100%"></stop>
        </linearGradient>
        <linearGradient x1="44.5860103%" y1="111.658652%" x2="56.7039838%" y2="60.2043057%" id="linearGradient-44">
            <stop stop-color="#292827" offset="0%"></stop>
            <stop stop-color="#680012" offset="100%"></stop>
        </linearGradient>
        <linearGradient x1="44.449%" y1="111.658652%" x2="56.8736396%" y2="60.2043057%" id="linearGradient-45">
            <stop stop-color="#292827" offset="0%"></stop>
            <stop stop-color="#680012" offset="100%"></stop>
        </linearGradient>
        <path d="M51.4463211,15.5672845 C52.0430452,15.5672845 52.5288804,16.0527785 52.5288804,16.6497477 C52.5288804,17.2465247 52.0430452,17.7320187 51.4463211,17.7320187 C50.8495971,17.7320187 50.3641462,17.2465247 50.3641462,16.6497477 C50.3641462,16.0527785 50.8495971,15.5672845 51.4463211,15.5672845 Z M51.4463211,15.7125868 C50.9330039,15.7125868 50.5094355,16.1363849 50.5094355,16.6497477 C50.5094355,17.1629183 50.9330039,17.5867165 51.4463211,17.5867165 C51.9596383,17.5867165 52.3832067,17.1629183 52.3832067,16.6497477 C52.3832067,16.1363849 51.9596383,15.7125868 51.4463211,15.7125868 Z M47.1983025,10.5994691 C48.0300819,10.5994691 48.5568095,10.9876139 48.8526603,11.2463772 L48.5016029,11.6530658 C48.1225176,11.3202691 47.7529165,11.1261967 47.2168462,11.1261967 C46.4959047,11.1261967 45.9135458,11.5698312 45.9135458,12.2722291 C45.9135458,13.2520754 47.2168462,13.3814571 48.1410614,13.9544733 C48.6771316,14.28727 49.1207662,14.7678505 49.1207662,15.5163954 C49.1207662,16.5423888 48.2889867,17.2541293 47.2351069,17.2541293 C46.3755826,17.2541293 45.6452984,16.8937293 45.0909675,16.163445 L45.4976561,15.803045 C45.8765999,16.2928267 46.3849252,16.7272601 47.2351069,16.7272601 C47.8822981,16.7272601 48.5662937,16.2650818 48.5662937,15.5163954 C48.5662937,14.3426181 47.1797587,14.2132365 46.2371414,13.6310192 C45.7562778,13.3351684 45.3590734,12.9562247 45.3590734,12.3001155 C45.3590734,11.2925242 46.1629664,10.5994691 47.1983025,10.5994691 Z M51.4680376,16.0497033 C51.613327,16.0497033 51.6875091,16.0837225 51.7432418,16.1394601 C51.7987823,16.1950055 51.8327984,16.2693865 51.8327984,16.3529929 C51.8327984,16.4362149 51.7987823,16.513671 51.7432418,16.5692165 C51.6938511,16.6188037 51.6346591,16.6435974 51.5299201,16.6528229 L51.9225473,17.234224 L51.7588085,17.234224 L51.3596472,16.6528229 L51.2051331,16.6528229 L51.2051331,17.234224 L51.0598438,17.234224 L51.0598438,16.0497033 L51.4680376,16.0497033 Z M3.64169631,10.6918481 C4.23325626,10.6918481 4.61220003,10.848833 4.89856657,11.1077378 C5.21296108,11.3942459 5.40703352,11.8101357 5.40703352,12.2721724 C5.40703352,12.7343508 5.21296108,13.1502405 4.89856657,13.4368901 C4.63060223,13.6864523 4.27940332,13.8342361 3.74333307,13.8527799 L6.23895451,17.161637 L5.57336109,17.161637 L3.07788121,13.8527799 L1.98719696,13.8527799 L1.98719696,17.161637 L1.43272452,17.161637 L1.43272452,10.6918481 L3.64169631,10.6918481 Z M11.9012549,10.6917915 L11.9012549,11.2186606 L8.94345508,11.2186606 L8.94345508,13.3259957 L11.2542052,13.3259957 L11.2542052,13.8527232 L8.94345508,13.8527232 L8.94345508,16.6348528 L11.993549,16.6348528 L11.993549,17.1617219 L8.38884108,17.1617219 L8.38884108,10.6917915 L11.9012549,10.6917915 Z M39.8759821,10.6917773 C40.9019756,10.6917773 41.5766285,10.9135946 42.1033561,11.3017395 C42.8983312,11.8932994 43.3882544,12.8546021 43.3882544,13.9267426 C43.3882544,14.998883 42.8983312,15.9600441 42.1033561,16.5516041 C41.5766285,16.9398905 40.9019756,17.1617078 39.8759821,17.1617078 L38.0274104,17.1617078 L38.0274104,10.6917773 L39.8759821,10.6917773 Z M33.3668126,10.6918481 C33.9583725,10.6918481 34.3373163,10.848833 34.6238244,11.1077378 C34.9380773,11.3942459 35.1321498,11.8101357 35.1321498,12.2721724 C35.1321498,12.7343508 34.9380773,13.1502405 34.6238244,13.4368901 C34.3557185,13.6864523 34.004378,13.8342361 33.4684493,13.8527799 L35.9639292,17.161637 L35.2984773,17.161637 L32.8029975,13.8527799 L31.7124548,13.8527799 L31.7124548,17.161637 L31.1578408,17.161637 L31.1578408,10.6918481 L33.3668126,10.6918481 Z M26.2975366,10.6918481 L29.0888673,17.161637 L28.5342533,17.161637 L27.6839301,15.21157 L24.5414005,15.21157 L23.6910773,17.161637 L23.1364633,17.161637 L25.9279355,10.6918481 L26.2975366,10.6918481 Z M14.3521023,10.6918481 L16.0898362,16.0433494 L17.8182275,10.6918481 L18.1879702,10.6918481 L19.9163614,16.0433494 L21.6538122,10.6918481 L22.2177689,10.6918481 L20.0920316,17.161637 L19.722289,17.161637 L18.0029573,11.8470816 L16.2840502,17.161637 L15.9143076,17.161637 L13.7884288,10.6918481 L14.3521023,10.6918481 Z M39.8480957,11.2186465 L38.5820244,11.2186465 L38.5820244,16.6348386 L39.8480957,16.6348386 C40.7539086,16.6348386 41.3548113,16.4499673 41.816848,16.0895673 C42.4544135,15.590443 42.8334988,14.795468 42.8334988,13.9267426 C42.8334988,13.0580172 42.4544135,12.2630421 41.816848,11.7639178 C41.3548113,11.4035178 40.7539086,11.2186465 39.8480957,11.2186465 Z M51.4586207,16.18578 L51.2051331,16.18578 L51.2051331,16.5198214 L51.4586207,16.5198214 C51.5733532,16.5198214 51.6165941,16.4982951 51.6471509,16.4610086 C51.6721346,16.433332 51.6875091,16.3929702 51.6875091,16.3529929 C51.6875091,16.3126312 51.6721346,16.2722694 51.6471509,16.2445928 C51.6165941,16.2073063 51.5733532,16.18578 51.4586207,16.18578 Z M26.1126653,11.5605735 L24.7632178,14.6845593 L27.4527701,14.6845593 L26.1126653,11.5605735 Z M33.3390677,11.2185757 L31.7124548,11.2185757 L31.7124548,13.3259107 L33.3390677,13.3259107 C33.8011045,13.3259107 34.0506666,13.224274 34.235538,13.0486037 C34.4481541,12.8545313 34.5775358,12.5772243 34.5775358,12.2721724 C34.5775358,11.9672621 34.4481541,11.6899551 34.235538,11.4958827 C34.0506666,11.3202125 33.8011045,11.2185757 33.3390677,11.2185757 Z M3.61395145,11.2185757 L1.98719696,11.2185757 L1.98719696,13.3259107 L3.61395145,13.3259107 C4.07612978,13.3259107 4.32583348,13.224274 4.51042171,13.0486037 C4.72303789,12.8545313 4.85241952,12.5772243 4.85241952,12.2721724 C4.85241952,11.9672621 4.72303789,11.6899551 4.51042171,11.4958827 C4.32583348,11.3202125 4.07612978,11.2185757 3.61395145,11.2185757 Z M3.9048053,0 C5.00539842,0 5.9471664,0.412775503 6.61389226,1.05826806 L5.69321604,2.031886 C5.24873213,1.58740209 4.62447288,1.26989336 3.89418865,1.26989336 C2.48684501,1.26989336 1.42857695,2.40219489 1.42857695,3.80968008 C1.42857695,5.24887368 2.52917007,6.34932525 3.95774702,6.34932525 C4.9207483,6.34932525 5.61918257,5.88374959 6.05304983,5.32290715 L7.03714287,6.20125832 C6.38103365,7.03714287 5.28058209,7.61921861 3.92603861,7.61921861 C1.6191105,7.61921861 9.57189883e-12,5.9366913 9.57189883e-12,3.80968008 C9.57189883e-12,1.68266886 1.59787719,0 3.9048053,0 Z M25.3876611,1.41555385e-05 C26.1390371,1.41555385e-05 26.8374713,0.17993105 27.5359056,0.698448426 L26.7950047,1.75671649 C26.4987293,1.48153282 26.0014452,1.26990752 25.5146363,1.26990752 C24.9750271,1.26990752 24.3715765,1.50276612 24.3715765,2.07422522 C24.3715765,3.26994355 27.789856,2.89963467 27.789856,5.39695477 C27.789856,6.70917319 26.6152294,7.61923276 25.2817776,7.61923276 C24.287068,7.61923276 23.3663917,7.20659882 22.6045406,6.50816455 L23.5358335,5.53454661 C23.9590841,6.00026382 24.6045767,6.3493394 25.2817776,6.3493394 C25.9166535,6.3493394 26.361279,5.95779721 26.361279,5.41818808 C26.361279,4.46580345 24.9853607,4.34944492 23.9907925,3.76736918 C23.4087168,3.42862714 22.9431411,2.92072642 22.9431411,2.08484187 C22.9431411,0.762006794 24.1600928,1.41555385e-05 25.3876611,1.41555385e-05 Z M47.0283511,1.41555385e-05 C47.7797271,1.41555385e-05 48.4781614,0.17993105 49.1765956,0.698448426 L48.4356947,1.75671649 C48.1395609,1.48153282 47.6421352,1.26990752 47.1553263,1.26990752 C46.6157171,1.26990752 46.0125497,1.50276612 46.0125497,2.07422522 C46.0125497,3.26994355 49.430546,2.89963467 49.430546,5.39695477 C49.430546,6.70917319 48.2559194,7.61923276 46.9226092,7.61923276 C45.9278995,7.61923276 45.0072233,7.20659882 44.2452307,6.50816455 L45.1765235,5.53454661 C45.5997741,6.00026382 46.2452667,6.3493394 46.9226092,6.3493394 C47.5574851,6.3493394 48.001969,5.95779721 48.001969,5.41818808 C48.001969,4.46580345 46.6263338,4.34944492 45.6314826,3.76736918 C45.0495484,3.42862714 44.5838311,2.92072642 44.5838311,2.08484187 C44.5838311,0.762006794 45.8007828,1.41555385e-05 47.0283511,1.41555385e-05 Z M11.8204267,0.10581265 L14.9950894,7.51340596 L13.502954,7.51340596 L12.8043782,5.87320371 L9.83100735,5.87320371 L9.13257308,7.51340596 L7.64043776,7.51340596 L10.8151004,0.10581265 L11.8204267,0.10581265 Z M20.8789522,0.105840962 L20.8789522,1.37573432 L17.8629731,1.37573432 L17.8629731,2.9101947 L20.1381929,2.9101947 L20.1381929,4.1799465 L17.8629731,4.1799465 L17.8629731,6.24354091 L20.9846941,6.24354091 L20.9846941,7.51343427 L16.4342546,7.51343427 L16.4342546,0.105840962 L20.8789522,0.105840962 Z M32.7950845,0.10581265 L35.9698887,7.51340596 L34.4776118,7.51340596 L33.7791776,5.87320371 L30.8058067,5.87320371 L30.1072309,7.51340596 L28.6150955,7.51340596 L31.7898997,0.10581265 L32.7950845,0.10581265 Z M40.053889,0.105911739 C40.8158816,0.105911739 41.3024075,0.31753704 41.6728579,0.656137522 C42.0751583,1.03706306 42.3289671,1.57681375 42.3289671,2.16936459 C42.3289671,2.76205699 42.0751583,3.30166612 41.6728579,3.68273321 C41.4717077,3.87312521 41.2286571,4.02133369 40.9322401,4.11660047 L43.7047439,7.51336349 L41.9374249,7.51336349 L39.3023714,4.232959 L38.7839956,4.232959 L38.7839956,7.51336349 L37.3552771,7.51336349 L37.3552771,0.105911739 L40.053889,0.105911739 Z M11.312526,2.41274076 L10.3706165,4.60331035 L12.254294,4.60331035 L11.312526,2.41274076 Z M32.2871838,2.41274076 L31.3454158,4.60331035 L33.2292349,4.60331035 L32.2871838,2.41274076 Z M39.9690973,1.3758051 L38.7839956,1.3758051 L38.7839956,2.96306563 L39.9690973,2.96306563 C40.3818728,2.96306563 40.5619312,2.87841551 40.6887649,2.74082368 C40.8158816,2.6033734 40.9003902,2.39160654 40.9003902,2.17998124 C40.9003902,1.95773929 40.8158816,1.74611399 40.6887649,1.60852215 C40.5619312,1.47093032 40.3818728,1.3758051 39.9690973,1.3758051 Z" id="path-46"></path>
    </defs>
    <g id="Symbols" stroke="none" stroke-width="1" fill="none" fill-rule="evenodd">
        <g id="Cash-Card">
            <mask id="mask-3" fill="white">
                <use xlink:href="#path-2"></use>
            </mask>
            <use id="Rectangle" fill="url(#linearGradient-1)" xlink:href="#path-2"></use>
            <g id="pathways" mask="url(#mask-3)">
                <g transform="translate(69.776411, -147.042063)" id="Path">
                    <path d="M170.919475,160.599388 C171.842365,159.432333 172.560728,158.929706 173.111278,158.785936 C176.222396,157.972864 179.512049,152.659872 182.693021,147.522003 C186.356151,141.605501 189.816053,136.017315 193.350359,136.012112 C194.854502,136.00968 196.211463,137.012334 197.498571,139.076936 C201.347383,145.251899 202.293828,156.799798 202.410144,165.400007 C202.553427,176.01397 201.517958,185.835005 200.786924,189.846594 L200.602378,189.812967 L200.786924,189.846594 C198.580663,201.953329 196.581691,212.583862 194.459419,220.066239 C192.218881,227.964979 189.931557,232.172161 187.042186,233.70717 C185.358696,234.60163 183.480751,234.571089 181.300807,233.614085 C178.269128,232.282791 175.41306,232.182558 172.312989,233.298928 C169.498508,234.312628 166.723178,236.24402 163.784909,238.288966 C160.230297,240.763109 156.201488,243.566868 151.276106,245.314689 C150.450362,245.60759 149.755068,245.50622 149.209391,245.013341 C147.826275,243.763923 147.469856,239.939478 148.149555,233.646575 C148.747053,228.11606 150.146252,220.756822 152.195746,212.364715 C155.098763,200.47924 159.126598,187.313318 162.971024,177.145773 C166.566412,167.635996 169.128117,162.865431 170.919475,160.599388" stroke="url(#linearGradient-4)"></path>
                    <path d="M171.361832,162.050247 C172.070123,161.154324 172.719931,160.598088 173.295011,160.438398 C176.124925,159.661228 179.128175,154.820483 182.032491,150.139267 C185.407594,144.699074 188.595714,139.56088 191.854176,139.549652 C193.232419,139.544798 194.475501,140.452092 195.654253,142.322889 C197.757844,145.553734 199.34305,150.918061 200.236861,157.833968 C200.998111,163.722852 201.214985,170.604968 200.831923,176.715925 C200.373158,183.083068 199.6816,187.981808 199.480647,189.331622 C197.30509,201.469385 195.57985,210.288578 193.700768,216.758391 C191.652898,223.808808 189.465482,227.750868 186.81719,229.164362 C185.223536,230.014798 183.450047,229.990756 181.395679,229.090447 L181.395517,229.090447 C178.610115,227.869295 175.984891,227.769712 173.133696,228.777889 C170.545836,229.692819 167.994365,231.443401 165.293113,233.296654 C162.042124,235.526957 158.357225,238.055035 153.86559,239.626758 C153.0712,239.886031 152.404985,239.771665 151.881727,239.287721 C148.365941,236.034944 152.567112,216.791044 154.536517,208.668282 C159.14463,189.662049 166.572585,168.107594 171.361832,162.050247" stroke="url(#linearGradient-5)"></path>
                    <path d="M171.74132,163.54578 C172.370172,162.750577 172.954349,162.247138 173.478907,162.091022 C176.026966,161.349916 178.743976,156.981744 181.371312,152.757343 C184.458874,147.793297 187.37505,143.104608 190.357831,143.087014 C191.610336,143.079753 192.739377,143.891688 193.810098,145.568842 C195.816218,148.494603 197.501007,153.534351 198.551097,159.754962 C199.526946,165.536141 199.868745,171.8526 199.489257,177.085016 C199.164191,180.578708 198.783403,183.72849 198.477344,186.25933 C198.358591,187.242976 198.255759,188.0926 198.174046,188.816974 C196.597449,197.796507 194.873834,206.987391 192.944554,213.449407 C191.061085,219.75823 189.044244,223.307806 186.598042,224.62058 C185.092437,225.428454 183.421618,225.411071 181.490389,224.566971 C175.944116,222.139288 171.707205,224.995844 166.801155,228.303367 C163.853789,230.290479 160.513288,232.542551 156.455075,233.938664 C154.790592,234.428781 154.028205,233.130303 153.68072,231.955125 C151.856059,225.786985 155.901764,207.371915 159.920826,193.476584 C163.561862,180.888342 168.312771,167.882111 171.74132,163.54578" stroke="url(#linearGradient-6)"></path>
                    <path d="M172.173117,165.005573 C172.693776,164.346993 173.198352,163.893427 173.66264,163.743971 C175.929332,163.039742 178.359452,159.14398 180.709482,155.376719 C183.386204,151.08555 186.154223,146.648498 188.861486,146.624354 C189.987765,146.614546 191.00309,147.330959 191.965618,148.814796 C195.999626,154.3419 198.947805,167.995665 198.146429,177.454107 C197.964158,178.994314 197.778475,180.454757 197.599128,181.867278 C197.269513,184.460986 196.984897,186.701199 196.867282,188.302651 L196.865333,188.317271 C195.068614,198.816381 193.670877,205.342402 192.191914,210.138473 C190.474959,215.706352 188.630641,218.863931 186.387667,220.075661 C184.967186,220.842922 183.396276,220.832362 181.585261,220.043495 L181.585098,220.043495 C176.576216,217.855429 172.744948,220.38302 168.30871,223.309593 C165.665128,225.053677 162.668864,227.03023 159.044722,228.250732 C157.748355,228.585058 156.849833,227.899836 156.363127,226.217971 C155.639079,223.715235 155.845555,218.855321 156.960301,212.163599 C157.944922,206.252783 159.634098,198.969736 161.716733,191.656472 C163.749657,184.517844 166.016025,177.827097 168.098172,172.816427 C169.259541,170.022091 170.774406,166.774675 172.173117,165.005573" stroke="url(#linearGradient-7)"></path>
                    <path d="M172.57811,166.484536 C173.019655,165.926026 173.44869,165.536954 173.846211,165.39692 C175.831049,164.729892 177.973628,161.307354 180.046028,157.997719 C182.448531,154.160441 184.932909,150.192713 187.36514,150.161495 C188.36552,150.149014 189.267128,150.77023 190.121301,152.060586 C191.953109,154.3843 193.846325,158.700487 195.178431,163.59679 C196.595013,168.803213 197.187475,173.988681 196.803438,177.82336 L196.639687,178.914713 C196.118216,182.381763 195.625499,185.656308 195.560031,187.78849 L195.558244,187.807335 C192.597881,205.696873 189.971358,213.469226 186.189313,215.529117 C184.850221,216.258526 183.375157,216.255602 181.680133,215.52002 L181.679808,215.52002 C177.207992,213.571733 173.782367,215.769871 169.815939,218.314844 C167.476306,219.816062 164.824764,221.517422 161.633882,222.562801 L161.619586,222.5667 C160.375042,222.834096 159.506086,222.127429 159.036925,220.466358 C157.524334,215.111453 160.355223,201.133921 163.508903,189.838634 C165.245027,183.620297 167.1977,177.773162 169.007253,173.374612 C170.020141,170.912003 171.347699,168.040664 172.57811,166.484536" stroke="url(#linearGradient-8)"></path>
                    <path d="M172.972869,167.970647 C173.349432,167.494175 173.703903,167.177881 174.029294,167.050031 C175.732278,166.421505 177.586992,163.472839 179.380625,160.621156 C181.509558,157.236957 183.710783,153.737091 185.868633,153.698577 C186.741325,153.683319 187.527592,154.207064 188.272435,155.299879 C191.707969,159.261271 196.339963,170.86879 195.46061,178.192938 C194.828347,181.534901 194.215578,184.981157 194.252617,187.274979 L194.250993,187.297398 C191.926955,201.996704 189.462071,209.07961 186.009803,210.979974 C184.745927,211.675756 183.360536,211.681279 181.775005,210.996544 L181.77468,210.996544 C177.839605,209.287874 174.81946,211.155909 171.322681,213.318795 C169.287158,214.577636 166.98034,216.004451 164.223204,216.874869 L164.20501,216.879255 C162.996205,217.078909 162.152754,216.344463 161.6987,214.69655 C160.341414,209.771331 162.666589,197.689614 165.295388,188.025183 C167.509283,179.886013 170.653866,170.903555 172.972869,167.970647" stroke="url(#linearGradient-9)"></path>
                    <path d="M173.368602,169.455296 C173.666214,169.078732 173.949205,168.821408 174.212215,168.703793 C175.63302,168.114417 177.198407,165.641085 178.712135,163.24898 C180.568149,160.315909 182.487357,157.282606 184.372125,157.235495 C185.107545,157.217137 185.798616,157.657057 186.426168,158.543558 C189.598368,161.764331 195.021178,172.418907 194.117457,178.562842 C193.537341,180.973467 192.786975,184.433694 192.944879,186.761794 L192.943904,186.787299 C191.216552,198.452001 188.965617,204.692757 185.859373,206.427094 C184.678509,207.086649 183.336006,207.102082 181.869877,206.473068 L181.869389,206.473068 C178.470894,205.004015 175.856067,206.540811 172.828449,208.32031 C171.097685,209.337747 169.135915,210.490831 166.812202,211.1871 L166.790433,211.191324 C165.609407,211.316737 164.785938,210.547039 164.343094,208.90335 C163.802616,206.89788 163.826659,203.647216 164.414735,199.241518 C164.928409,195.393843 165.847562,190.891648 167.072775,186.221478 C168.850974,179.443494 171.425026,171.913682 173.368602,169.455296" stroke="url(#linearGradient-10)"></path>
                    <path d="M180.179889,162.743917 C181.077436,161.609027 181.980019,160.803915 182.87513,160.771749 C183.485462,160.749656 184.058755,161.09113 184.579414,161.786587 C187.51817,164.287698 193.71815,173.84881 192.774304,178.933232 L192.771218,178.945741 C191.802029,182.060758 191.420592,184.518007 191.636978,186.249258 L191.636978,186.276874 C190.46115,195.070076 188.48411,200.315488 185.75979,201.867879 C184.628961,202.512164 183.352251,202.539781 181.964749,201.949755 L181.964261,201.949593 C179.101532,200.719831 176.89186,201.924088 174.333404,203.318413 C172.907563,204.095583 171.291328,204.976398 169.400874,205.499169 L169.375694,205.503067 C168.211076,205.544005 167.398491,204.729146 166.96052,203.080908 C166.066872,199.719289 166.76769,192.749611 168.834729,184.436943 C169.700761,180.953972 170.724208,177.626306 171.716465,175.067037 C172.449448,173.175934 173.50896,170.823629 174.394324,170.358041 C175.532625,169.810903 176.806086,167.814693 178.037634,165.884276 C178.743326,164.777978 179.459901,163.654785 180.179889,162.743917" stroke="url(#linearGradient-11)"></path>
                    <path d="M172.254831,242.110649 C173.679697,240.308569 175.024312,239.442537 176.281041,239.523763 C177.892727,239.62757 179.339362,241.286205 180.580983,244.453369 C181.926897,247.886792 183.084205,253.205795 184.020416,260.262547 C185.259925,269.605323 185.787082,278.2286 185.587266,285.89276 C185.413929,292.550855 184.684845,298.694789 183.420156,304.154475 C181.20626,313.713475 177.704608,319.930026 174.250391,325.224011 C170.547948,330.898459 166.294305,334.994199 161.608052,337.396701 C157.533107,339.485996 153.214483,340.270802 148.771908,339.729674 C139.514744,338.601933 131.868454,331.867648 129.82432,326.008654 C128.865529,323.260129 129.206515,320.864612 130.783762,319.264785 C137.462813,312.489075 142.887572,306.082456 147.368323,299.677298 C153.542473,290.851607 157.811874,282.10974 160.057773,273.69489 C161.663123,267.679617 164.189902,259.005006 167.110951,251.840223 C168.919204,247.404634 170.638434,244.155107 172.254831,242.110649 L172.254831,242.110649 Z" stroke="url(#linearGradient-12)"></path>
                    <path d="M172.508906,246.495878 C173.820543,244.83708 175.056803,244.04204 176.209562,244.121804 C179.313207,244.336891 181.626686,250.59974 183.281909,263.269208 C185.218662,279.707238 184.745602,293.646593 181.876862,304.702101 C179.548275,313.674487 176.126549,319.311409 172.775977,324.066378 C169.443112,329.07526 165.647583,332.69599 161.496123,334.824761 C157.868407,336.685324 154.040226,337.385979 150.117173,336.907883 C147.413485,336.578106 143.323756,335.50446 139.196338,332.261269 C136.26408,329.957212 134.00356,327.023167 132.994896,324.211448 C131.976972,321.374386 132.294565,318.889033 133.888869,317.213179 C145.628462,304.551021 157.099522,290.625149 161.497747,274.614693 C162.992143,269.175638 165.319918,261.372419 167.921262,255.085364 C169.533922,251.187979 171.066982,248.319564 172.508906,246.495878" stroke="url(#linearGradient-13)"></path>
                    <path d="M172.760706,250.877858 C173.960414,249.360881 175.088156,248.636833 176.137596,248.715622 C178.960199,248.927297 181.055667,254.671437 182.543565,266.276195 C184.10749,281.737238 183.363623,294.848251 180.333081,305.249564 C177.867385,313.711851 174.383439,318.92526 171.300588,322.909233 C168.336164,327.260022 164.990953,330.412078 161.363562,332.268579 C158.176579,333.899597 154.830393,334.513828 151.418089,334.094215 C147.995225,333.673627 144.660898,332.223905 141.775426,329.901654 C139.142567,327.78263 137.14993,325.145222 136.164984,322.475811 C135.078018,319.529906 135.372543,316.933111 136.994139,315.161572 L137.867806,314.161193 C142.562993,308.785494 147.88492,302.692407 152.432439,296.243713 C157.636913,288.863682 161.07326,282.089434 162.937884,275.534171 C164.950989,268.460849 166.900088,262.67171 168.731247,258.327581 C170.147179,254.968236 171.493581,252.480609 172.760706,250.877858" stroke="url(#linearGradient-14)"></path>
                    <path d="M173.004222,255.238557 C174.090213,253.865025 175.1083,253.224152 176.065792,253.302941 C178.607516,253.512179 180.484974,258.739397 181.805221,269.282856 C182.998593,283.778122 181.983593,296.060955 178.789137,305.796865 C176.152866,313.831416 172.617099,318.541224 169.829585,321.746564 C163.590291,330.631875 157.052898,331.84263 152.66702,331.29273 C149.704708,330.921365 146.819235,329.633283 144.322186,327.567868 C142.038598,325.678714 140.266247,323.281573 139.331823,320.817826 C138.181013,317.784035 138.462218,314.971504 140.099571,313.109966 C141.252818,311.706868 142.450252,310.270793 143.608372,308.881828 C152.11452,298.679356 160.910646,288.129724 164.378184,276.453487 L164.378346,276.453324 C167.657927,265.417798 170.508634,258.394836 173.004222,255.238557" stroke="url(#linearGradient-15)"></path>
                    <path d="M173.237178,259.616638 C174.161692,258.447146 175.087181,257.797825 175.993663,257.881163 C178.25532,258.089102 179.914605,262.802159 181.066714,272.28968 C181.891645,285.830703 180.605513,297.285193 177.245194,306.344166 C175.095629,312.138178 172.187576,316.797789 168.355008,320.588281 C162.957216,327.987644 157.489732,328.980226 153.854869,328.507653 C151.358144,328.183074 148.92705,327.06248 146.824434,325.267061 C144.896454,323.62126 143.356571,321.487128 142.48859,319.258124 C141.274586,316.140833 141.496496,313.21556 143.09145,311.197906 C143.128813,311.150795 143.166502,311.104496 143.205328,311.05836 C145.11154,308.597212 147.054791,306.18675 148.933873,303.855889 C156.155189,294.898123 162.97606,286.437136 165.818483,277.37264 L165.818645,277.372478 C167.96756,270.527238 170.597983,262.954539 173.237178,259.616638" stroke="url(#linearGradient-16)"></path>
                    <path d="M173.490278,263.959467 C174.310823,262.921561 175.123408,262.361427 175.920722,262.445089 C177.903611,262.653515 179.34521,266.857285 180.328532,275.296504 C180.785997,287.89628 179.228732,298.522915 175.700925,306.891142 C172.834622,313.690245 169.324359,317.461893 166.879619,319.430648 C162.313419,325.375579 157.881729,326.149175 154.969127,325.746294 C150.99019,325.196069 147.321212,322.085601 145.621314,317.822049 C144.302042,314.512902 144.55238,311.231047 146.288992,309.034371 C146.296465,309.024786 146.303775,309.015689 146.311248,309.006429 C148.929974,305.420789 151.487293,302.176947 153.9603,299.039512 C159.87274,291.539428 164.978931,285.062143 167.258945,278.291144 C169.291057,272.267099 171.413979,266.585503 173.490278,263.959467" stroke="url(#linearGradient-17)"></path>
                    <path d="M173.713325,268.32309 C174.427139,267.420181 175.146801,266.899035 175.846807,266.985785 C177.55239,267.197297 178.776953,270.899253 179.590026,278.303653 C179.680511,289.976153 177.852277,299.774445 174.156494,307.437793 C172.78946,310.273067 171.196781,312.736164 169.42378,314.759504 C167.640382,316.79454 166.145824,317.831958 165.402606,318.274153 C163.135588,321.02284 160.733086,322.616494 158.261704,323.01044 C156.127572,323.350615 154.027555,322.762539 152.188599,321.310218 C150.165421,319.712015 148.663228,317.231211 148.067354,314.503642 C147.436715,311.616708 147.916274,308.9356 149.41733,306.954173 C152.763354,302.097183 155.945463,298.024025 158.753446,294.430424 C163.326145,288.577604 166.938102,283.954545 168.699731,279.209322 L168.808574,278.916909 C170.110952,275.415256 171.891751,270.627146 173.713325,268.32309" stroke="url(#linearGradient-18)"></path>
                    <path d="M173.896571,272.637977 C174.521199,271.84781 175.152,271.389209 175.769967,271.483431 C177.202794,271.702416 178.210808,274.917016 178.851519,281.310639 L178.852006,281.324285 C178.661125,288.712926 177.423241,299.335824 172.6119,307.984281 C171.196619,310.528117 169.535547,312.758095 167.80852,314.433138 C166.449771,315.750948 165.035627,316.728097 163.92348,317.118469 C159.261596,322.193957 155.624783,320.206681 154.276431,319.115167 C152.550379,317.717754 151.282116,315.281787 150.884109,312.599055 C150.456535,309.716669 151.038763,306.983089 152.523737,304.901917 C156.678772,298.508781 160.374879,293.836012 163.344989,290.082072 C166.553253,286.027432 168.867544,283.101347 170.141168,280.126364 C170.243025,279.889346 170.347969,279.643232 170.456,279.390294 C171.483996,276.979344 172.678343,274.178672 173.896571,272.637977" stroke="url(#linearGradient-19)"></path>
                    <path d="M177.920019,284.327372 C177.470839,279.070588 176.706828,276.294934 175.64894,276.078548 C174.564086,275.856476 173.232954,278.358561 172.163208,280.369067 C172.023174,280.632239 171.886552,280.888751 171.754154,281.133079 C170.941731,282.638359 169.65105,284.177104 167.864891,286.306363 C164.942054,289.790795 160.939075,294.562335 155.793246,302.953468 C154.357333,305.105307 153.615252,307.93717 153.755448,310.726308 C153.887359,313.35072 154.781657,315.618225 156.148041,316.791941 C157.84144,318.246861 160.038928,317.89369 162.335512,315.79741 L162.36118,315.774179 L162.39562,315.772392 C163.952559,315.690841 167.504085,313.666364 170.905017,308.424688 C173.660528,304.178031 177.113932,296.55091 177.920019,284.327372" stroke="url(#linearGradient-20)"></path>
                    <path d="M173.162775,282.060517 C172.823575,282.456088 172.389179,282.874889 171.839116,283.405295 C169.59273,285.571267 165.411541,289.603163 158.883895,300.883992 C155.635667,306.131029 155.417007,312.739738 157.400708,314.714505 C158.252119,315.562179 159.460112,315.536512 160.893913,314.639777 L160.926729,314.61947 L160.963443,314.630517 C161.850106,314.894176 163.243781,314.46043 164.787075,313.440556 C166.490872,312.314764 175.094492,305.765999 177.204418,287.328835 C176.937347,282.818031 176.393133,280.486033 175.540097,280.20028 C174.923917,279.993966 174.162505,280.887939 173.426435,281.752508 C173.338223,281.85599 173.250337,281.95931 173.162775,282.060517" stroke="url(#linearGradient-21)"></path>
                    <path d="M175.523527,283.138549 C176.313206,283.850576 176.635674,285.935972 176.636486,290.336309 L176.635511,290.34898 C175.553094,296.55887 173.419612,302.134385 170.465585,306.473153 C167.127684,311.375466 163.95126,313.048884 162.740343,313.540951 C161.346667,314.106934 160.182374,314.138775 159.456863,313.6316 C158.716569,313.691544 158.167644,313.451765 157.82487,312.919248 C157.179744,311.916952 157.383353,310.077109 157.78978,308.386177 L157.829724,308.223036 C157.9243,307.843614 158.028156,307.473407 158.133854,307.123773 C158.905014,304.573439 160.222987,301.596994 161.84507,298.743037 C164.598469,293.699715 167.050844,289.811914 169.157521,287.147539 C169.655761,286.517225 170.134183,285.955954 170.593272,285.463399 C172.855091,283.036691 174.107108,282.895683 174.518762,282.849384 L174.519249,282.849384 C174.93204,282.806659 175.260355,282.901206 175.523527,283.138549 Z" stroke="url(#linearGradient-22)"></path>
                    <path d="M176.009584,283.809151 C176.579303,284.783862 176.620241,286.81305 176.554285,288.34351 C176.47907,290.092631 176.220609,292.06025 175.896192,293.356292 C174.147559,300.340428 171.188171,304.906303 169.015538,307.505697 C166.489572,310.527142 163.531809,312.645516 161.103639,313.172673 C159.701028,313.477108 158.586933,313.21621 157.967016,312.438227 C156.408451,310.481818 158.693339,306.902188 161.339519,302.757226 C162.581627,300.811376 163.865972,298.799245 164.952939,296.689157 C167.67336,291.407517 169.894566,287.679569 171.650997,285.458201 C172.945252,283.821172 173.986569,283.002251 174.790381,282.98097 C175.277575,282.968137 175.676557,283.238782 176.009584,283.809151 Z" stroke="url(#linearGradient-23)"></path>
                    <path d="M145.570304,293.573165 C147.170619,291.549176 148.686134,289.211491 150.01759,286.453706 C154.362206,277.455491 157.392586,270.595955 159.282065,265.483429 C162.007684,258.108596 161.76092,255.84434 161.074073,255.24343 C159.127573,253.541096 157.74202,254.05087 155.226613,254.976359 C150.903928,256.566439 143.669291,259.22789 125.867802,252.724937 C120.501201,250.764629 114.715311,246.119477 108.589408,241.20173 C99.4847866,233.892365 89.1653489,225.607801 77.2668777,223.577151 C63.5612907,221.238005 50.0974321,227.656483 36.1056047,243.19924 C28.6204668,251.513695 22.1594262,260.262547 16.9016675,269.201955 C11.9181278,277.675288 7.96891994,286.395874 5.16337406,295.121657 C-0.0951968664,311.478461 -1.3264205,327.926887 1.60291379,342.689062 C3.61309472,352.819406 7.45914559,361.838253 13.0343354,369.494615 C18.6423406,377.196627 25.7148505,383.124175 34.0551356,387.112859 C42.4839572,391.143617 52.1849402,391.201613 62.8882521,387.284408 C68.6879506,385.162135 74.7297025,381.882392 80.8458575,377.536639 C86.3164283,373.649975 91.7361516,368.997025 96.9547593,363.707263 C106.124037,354.413385 114.070863,343.640706 117.694193,335.593322 C121.826322,326.415921 123.222759,321.713749 124.146786,318.602468 C125.272416,314.812463 125.786089,313.082674 129.574307,308.265323 C129.580805,308.2572 129.587465,308.248915 129.593963,308.24063 C130.98504,306.481438 133.034534,304.896718 135.406333,303.063123 C138.568136,300.618708 142.251573,297.770762 145.570304,293.573165" stroke="url(#linearGradient-24)"></path>
                    <path d="M32.8706982,257.126249 C34.7049436,254.806272 36.6252886,252.515049 38.628809,250.257129 C51.2110405,236.0161 63.3822686,229.90758 75.8373002,231.58311 C86.657415,233.038517 96.1311277,240.140106 104.489608,246.405717 C110.311887,250.770152 115.811374,254.892534 120.942583,256.483913 C137.218323,261.77335 144.151611,259.303918 148.294137,257.828529 C150.797685,256.936667 152.451771,256.347454 154.527582,258.113794 C155.716243,259.091268 155.455346,262.408213 153.749925,267.970569 C152.215403,272.97474 149.568898,279.59872 146.096324,287.126908 C142.498175,295.008753 137.320505,299.285302 133.16011,302.721486 C131.148954,304.38272 129.412017,305.817334 128.175758,307.376711 L128.175595,307.376873 C124.248156,312.315251 123.669827,313.852047 121.947511,318.405251 C120.790203,321.464385 119.205321,325.654184 115.822908,333.00936 C112.359594,340.544533 104.906947,350.624517 96.3735061,359.315049 C91.4927985,364.285592 86.437455,368.654414 81.3475093,372.299999 C75.6368345,376.390377 70.0038117,379.473716 64.6048822,381.464565 C54.8647483,385.056054 46.0192374,385.069375 38.3144644,381.503716 C30.5737895,377.899069 23.9907475,372.501439 18.7482593,365.461095 C13.5385864,358.465262 9.91996834,350.209615 7.99280038,340.923371 C5.20821081,327.505324 6.20144228,312.536023 10.8647891,297.634302 C13.3511168,289.688938 16.8794116,281.739512 21.3515524,274.007285 C24.6671976,268.274679 28.5260822,262.62135 32.8706982,257.126249" stroke="url(#linearGradient-25)"></path>
                    <path d="M37.0031519,262.895731 C38.4192459,261.104535 39.8939851,259.329423 41.4309434,257.566331 C52.522353,244.721902 63.2973062,238.970289 74.3705212,239.983015 C84.0198445,240.865779 92.6034828,246.76636 100.176832,251.972459 C105.709622,255.775785 110.935378,259.368086 115.888051,260.595736 C130.751434,264.734688 137.453228,262.422021 141.45767,261.040204 C144.006054,260.160852 145.689707,259.579924 147.734165,261.266663 C150.596569,263.480071 146.684725,276.488576 141.837158,287.637007 C138.761617,294.887402 134.255361,298.917023 130.634144,302.155179 C128.991916,303.623582 127.573873,304.891845 126.481871,306.256442 L126.481708,306.256767 C121.990236,311.843003 121.435787,313.079913 118.351311,319.94221 C117.190104,322.526171 115.744769,325.741908 113.6095,330.271232 C111.428582,334.903875 107.600726,340.66556 102.830485,346.4945 C97.4627467,353.054149 91.372584,359.119619 85.2180904,364.035579 C77.9345554,369.853309 70.8246816,373.888454 64.0856857,376.028759 C56.2355181,378.522072 49.0523785,378.363032 42.7359202,375.556349 C35.6500893,372.36303 29.6029764,367.535282 24.7615822,361.206965 C19.9482922,354.915524 16.5777383,347.471811 14.7438177,339.08279 C12.1177813,327.07044 12.8705838,313.645408 16.920512,300.259039 C20.8170854,287.379683 27.5629043,274.835952 37.0031519,262.895731" stroke="url(#linearGradient-26)"></path>
                    <path d="M41.2059474,268.560432 C42.1827712,267.325147 43.1914356,266.09701 44.2327528,264.875534 C53.8484486,253.41682 63.2381736,248.031049 72.9378571,248.411349 C81.4211,248.744051 88.7792005,253.259079 95.8952475,257.625464 C101.123277,260.833403 106.061493,263.863458 110.833358,264.708046 C124.260665,267.718931 130.466493,265.639545 134.572954,264.263577 C137.282654,263.355633 138.91822,262.807682 140.940585,264.419693 C143.613895,266.363431 142.139156,276.787326 137.577991,288.146294 C135.008488,294.848576 131.131734,298.663436 128.01688,301.728905 C126.825294,302.901483 125.699827,304.008918 124.788146,305.13601 L124.787984,305.136335 L124.324346,305.705242 C118.991047,312.247996 118.556,312.782301 111.396091,327.533429 C109.387535,331.680178 105.793772,337.058314 101.540292,342.288943 C96.6465879,348.30454 91.1248448,353.879243 85.5717484,358.410354 C78.9737608,363.794175 72.5430987,367.567122 66.4589468,369.62409 C59.3612569,372.02383 52.867401,372.018794 47.157376,369.609144 C40.7250895,366.827966 35.2117938,362.570099 30.7697066,356.953484 C26.3506875,351.36611 23.2268982,344.73352 21.4854129,337.240098 C19.0200415,326.632632 19.5343645,314.751381 22.9728233,302.881014 C26.3924377,291.074653 32.5186647,279.548197 41.2059474,268.560432" stroke="url(#linearGradient-27)"></path>
                    <path d="M45.399483,274.204989 C45.9337876,273.529189 46.4784892,272.856312 47.0347248,272.184898 C65.3182089,249.577592 79.3124732,256.913599 91.6594743,263.385686 C96.5619504,265.955514 101.192157,268.38271 105.778014,268.821167 C117.734968,270.736314 123.681198,268.792089 127.61611,267.505631 C130.432866,266.584528 132.133088,266.028618 134.147493,267.572561 C135.475213,268.480506 136.186753,271.201739 136.093018,275.034306 C135.99376,279.103566 135.008488,283.941062 133.318988,288.655256 C131.221732,295.002093 128.021266,298.520803 125.197363,301.625423 C124.448297,302.449054 123.740493,303.227199 123.094584,304.015579 L123.094097,304.016229 C122.115649,305.198717 121.240682,306.21128 120.46871,307.104441 C116.902727,311.229584 114.750725,313.719486 109.182683,324.795463 C105.639118,331.864886 96.8496529,343.639081 85.9254064,352.785128 C80.0126413,357.735528 74.2616784,361.245953 68.8322079,363.219257 C62.4871581,365.525426 56.6824236,365.674232 51.5793192,363.661777 C45.7976529,361.293876 40.8159001,357.606379 36.7706831,352.700978 C32.7430109,347.817184 29.8640367,341.994417 28.2131996,335.394805 C25.9112549,326.190925 26.1900225,315.852968 29.0194488,305.498603 C31.9525195,294.765075 37.4589922,284.248096 45.399483,274.204989" stroke="url(#linearGradient-28)"></path>
                    <path d="M50.4116143,278.757056 C56.9451084,270.493448 63.4334409,266.111468 70.2245839,265.370037 C76.4018209,264.695699 82.0419915,267.025911 87.4963171,269.278957 C92.0413989,271.156577 96.3345176,272.930228 100.722833,272.935427 C111.154038,273.804545 116.803956,271.984595 120.542788,270.780176 C123.525732,269.819272 125.32635,269.239319 127.354075,270.725755 C130.215992,272.565361 131.557683,280.843752 129.059984,289.162756 C127.353101,295.756682 124.487123,299.193841 121.715042,302.518096 L121.40021,302.895797 C120.056082,304.491401 118.840129,305.756414 117.664302,306.979678 C114.51257,310.259096 111.535313,313.356731 106.96895,322.057984 C103.651355,328.403684 95.7618744,338.965825 86.2792268,347.159741 C78.2867513,354.0659 66.546346,361.502952 56.0015873,357.714572 C45.7377081,353.810688 38.0547036,345.002054 34.9203549,333.546589 C32.7857358,325.744507 32.8331718,316.948869 35.0576269,308.110506 C37.4895332,298.447699 42.3747894,288.93045 49.5795352,279.81803 C49.6649849,279.709999 49.7504347,279.602456 49.8363718,279.494588 C50.0282276,279.245224 50.2199209,278.999597 50.4116143,278.757056" stroke="url(#linearGradient-29)"></path>
                    <path d="M54.3267073,284.560653 C59.1052326,278.516465 63.9207969,275.02131 68.992873,273.901529 C74.0423682,272.786783 78.8296659,274.080876 83.4590602,275.332568 C87.4144413,276.401827 91.5043326,277.507638 95.6678147,277.051148 C104.478723,276.958063 109.765561,275.249555 113.263964,274.119052 C116.518528,273.067175 118.48306,272.432313 120.560821,273.87911 C123.323154,275.547979 126.354021,282.532115 124.801142,289.668631 C123.978648,294.912094 122.454361,298.534286 119.70681,301.775041 L119.706323,301.775691 C118.234183,303.485498 116.780563,304.823615 115.24198,306.240196 C111.990016,309.234187 108.627097,312.330197 104.755217,319.320343 C101.640362,324.971723 94.6406307,334.333831 86.6327223,341.534353 C79.6934231,347.774134 69.5135316,354.6145 60.4245052,351.767204 C51.4217408,348.692151 44.5594438,341.376775 41.594695,331.696261 C39.6334121,325.292403 39.4560145,318.037135 41.0815091,310.714612 C42.8796902,302.615243 46.7678161,294.57062 52.6380188,286.804603 C53.2002652,286.021259 53.7636487,285.272681 54.3267073,284.560653" stroke="url(#linearGradient-30)"></path>
                    <path d="M58.219057,290.206023 C65.9176568,280.46865 72.6207508,280.994507 79.6739289,281.547331 C83.1526758,281.819926 86.7495253,282.101943 90.6134459,281.168169 C97.6227619,280.272733 102.216254,278.731064 105.570238,277.605434 C109.439032,276.307118 111.57024,275.591842 113.767728,277.032628 C115.30761,277.90662 117.090359,279.844835 118.413693,282.087484 C120.01352,284.797996 120.769084,287.668847 120.541651,290.170933 C120.543438,294.455442 120.35808,297.954008 118.012923,300.654772 L118.012436,300.655259 C116.517553,302.346222 114.779804,303.757118 112.940035,305.251026 C109.619192,307.94708 105.855666,311.003289 102.541158,316.583027 C100.255946,320.454096 94.4076746,328.881455 86.9865428,335.908641 C83.1257088,339.564623 79.4135183,342.288131 75.9531285,344.003461 C71.8655115,346.029887 68.1291157,346.641194 64.8482353,345.819999 C57.08368,343.586285 51.0211342,337.764493 48.2112021,329.84642 C46.4328401,324.834776 46.0413308,319.116141 47.0790742,313.308158 C48.2264726,306.885456 51.0391663,300.427989 55.439016,294.115267 C56.3809127,292.657098 57.3072139,291.359432 58.219057,290.206023" stroke="url(#linearGradient-31)"></path>
                    <path d="M62.030668,295.526163 C66.6805313,289.644588 71.1645312,288.773196 76.5400675,287.727493 C79.3461007,287.181654 82.2478182,286.617296 85.5610265,285.286976 C90.3489741,283.954545 93.9385132,282.614803 96.8228483,281.538234 C101.771461,279.691317 104.497405,278.673881 106.974473,280.186309 C109.856859,281.722455 115.744119,286.525673 116.278911,290.660076 C116.355263,290.939493 116.434215,291.219398 116.513004,291.499465 C117.336149,294.424251 118.186585,297.449432 116.319199,299.534503 L116.318549,299.534991 C114.848521,301.14424 112.800326,302.611181 110.631755,304.164385 C107.122954,306.67768 103.146292,309.525626 100.326938,313.846036 C97.2900602,318.533263 81.5203582,341.817507 69.27359,339.872632 C62.7054936,338.508685 57.4012736,334.185675 54.7167545,328.0112 C53.1149779,324.327114 52.5447714,320.248594 53.0217304,315.88887 C53.5415768,311.137962 55.297033,306.272362 58.2396884,301.427394 C59.52842,299.035288 60.7857984,297.10081 62.030668,295.526163" stroke="url(#linearGradient-32)"></path>
                    <path d="M65.6778776,299.836177 C68.4273776,296.358892 71.755694,294.455117 76.3566592,291.823557 C77.6643977,291.075791 79.0164857,290.302519 80.5112064,289.406759 C81.6847596,288.844837 82.7811481,288.315406 83.813368,287.816841 C92.7950137,283.478723 96.8943272,281.498921 100.181868,283.340314 C102.702148,284.600617 110.378492,288.440007 112.002687,291.146944 C114.117162,293.576576 116.320011,296.598833 114.62515,298.414234 L114.6245,298.414722 C113.19541,299.914966 110.76724,301.44965 108.196275,303.074657 C104.570346,305.366205 100.461935,307.96365 98.1120673,311.109695 C97.6671113,311.709955 97.145478,312.436928 96.5414815,313.278591 C94.0665254,316.726472 90.3267181,321.936958 86.2407257,326.239174 C81.3523828,331.386465 77.1335046,333.972051 73.7020312,333.92429 C68.3284443,333.513936 63.5733121,330.647308 60.9766795,326.255906 C58.0975429,321.386733 58.1197988,315.167258 61.0392235,308.742769 C62.472375,304.788688 63.9623846,302.006048 65.6778776,299.836177" stroke="url(#linearGradient-33)"></path>
                    <path d="M69.5049216,299.581127 C71.1039366,297.558762 73.0811397,295.552318 75.4652852,293.527353 C84.385199,286.762203 89.7448151,284.659749 93.3892631,286.494482 C95.0948465,287.294071 98.6356501,288.485006 101.759927,289.535908 C104.233421,290.36815 106.569968,291.15393 107.71233,291.647297 C108.756247,291.975287 110.026621,292.672531 111.103678,293.510296 C112.283242,294.427662 113.036532,295.351852 113.224814,296.112939 C113.341129,296.582751 113.241709,296.979946 112.930938,297.294128 L112.930451,297.294453 C111.527353,298.688453 108.546684,300.347251 105.391054,302.103519 C101.641499,304.190052 97.7642576,306.34774 95.8955724,308.374166 C94.883334,309.480139 93.517925,311.416242 91.9371047,313.657917 C88.0132393,319.222385 82.6388401,326.844145 78.1355085,327.972699 C73.7962534,328.746945 69.3921799,327.587363 66.6369942,324.947193 C64.3220533,322.728911 63.3541644,319.658893 63.8379464,316.068542 C63.918685,311.606473 64.7044653,307.967386 66.3103032,304.625261 C67.1293862,302.92049 68.1890605,301.245285 69.5049216,299.581127" stroke="url(#linearGradient-34)"></path>
                    <path d="M69.8088693,298.396202 C70.0093351,298.142777 70.214187,297.893088 70.4235876,297.646486 C73.8321553,293.634734 77.0938664,290.99229 80.1175853,289.793395 C82.4916586,288.851985 84.6717643,288.803412 86.5969829,289.648975 C89.7493638,291.033391 99.8155389,292.54192 103.426197,292.171042 C104.771949,292.032795 106.536178,292.389865 108.266616,293.150465 C109.832654,293.838774 111.043408,294.725599 111.351742,295.409847 C111.488689,295.714282 111.448239,295.978916 111.236564,296.174021 C109.752565,297.539918 105.433779,299.630187 101.2573,301.65174 C98.0186574,303.219402 94.9596864,304.699989 93.6756659,305.639936 C92.2192838,306.705784 90.4009587,309.896503 88.4757402,313.27453 C86.4928512,316.754089 84.4420572,320.352726 82.573372,322.009736 C80.6184247,323.743099 77.6000668,325.093887 74.6962374,325.534944 C71.3024529,326.050242 68.4486588,325.299876 66.6603873,323.422094 C64.5680056,321.224606 63.5978424,317.098487 64.0653792,312.384943 C64.559883,307.398317 66.590208,302.467249 69.8088693,298.396202" stroke="url(#linearGradient-35)"></path>
                    <path d="M93.7916566,31.8967985 C95.881439,29.2535422 97.9587126,26.7509693 100.01373,24.4033755 C111.29797,11.511348 121.510515,3.6317767 130.367722,0.983321898 C139.429619,-1.72621485 146.8527,1.16608039 152.430814,9.57995632 C169.365785,35.1247195 177.723615,53.659192 183.254293,65.9238299 C185.743382,71.444111 187.709701,75.80416 189.586509,78.813908 L189.427306,78.9131662 L189.586509,78.813908 C192.708998,83.8210033 193.18547,95.1102794 190.829754,108.276039 C188.294691,122.444451 183.098664,135.654072 176.573617,144.517778 C167.574102,156.743265 160.777923,172.382518 156.661389,183.349327 C151.866131,196.124064 147.892556,210.149519 146.031993,220.867289 C144.830823,227.786282 141.00053,232.814658 134.955042,235.408529 C124.487285,239.89984 108.748611,236.528798 93.8810052,226.611104 C86.8338379,221.910231 79.5468914,217.049343 72.838274,211.948188 C65.4213659,206.308504 59.533456,200.971469 54.8385935,195.63216 C49.2320504,189.256406 45.1320871,182.711541 42.3042853,175.623598 C39.1468684,167.709424 37.6316787,159.297173 37.6716529,149.906148 C37.7419836,133.866613 51.0216215,99.9206453 69.9661228,67.3558442 C77.7157326,54.0349435 85.8433681,41.9494901 93.7916566,31.8967985" stroke="url(#linearGradient-36)"></path>
                    <path d="M97.4517,37.4505447 C99.1043241,35.3604374 100.747688,33.3689384 102.376432,31.4844953 C112.649571,19.5983706 121.948485,12.3158103 130.015364,9.83906725 C138.171104,7.33486982 144.863801,9.86181053 149.90761,17.3495477 C165.308871,39.8535345 173.617153,57.2051941 179.115016,68.6873008 C181.695728,74.0774578 183.734176,78.3348371 185.647535,81.3660288 C188.737372,86.2672053 189.386693,96.8983885 187.342235,109.110717 C185.153194,122.18729 180.401798,134.542901 174.306599,143.009574 C166.058749,154.329228 159.728483,168.676013 155.870248,178.718471 C151.33735,190.515897 147.643679,202.988636 145.735843,212.938495 C144.530774,219.216777 140.93961,223.772906 135.3511,226.114001 C125.649629,230.1779 111.171745,227.071493 97.5672033,218.00716 L97.5673658,218.00716 C84.7234241,209.467383 71.4423241,200.636818 61.653292,189.476366 C56.4972283,183.597879 52.7190824,177.562625 50.1026306,171.025719 C47.1840181,163.733574 45.7664621,155.988188 45.7686133,147.347529 C45.7242246,132.513226 57.7521699,101.152194 75.0187046,71.0837925 C82.3040266,58.3967794 89.9691613,46.9145103 97.4517,37.4505447" stroke="url(#linearGradient-37)"></path>
                    <path d="M101.08835,43.0137131 C102.312426,41.4655456 103.529354,39.980572 104.738971,38.559442 C114.000684,27.678895 122.386294,20.9935083 129.662681,18.688477 C136.912426,16.3918932 142.874901,18.5554288 147.384406,25.1189766 C161.350079,44.7270942 169.284721,60.299742 175.078409,71.6702442 C177.707532,76.8303692 179.784318,80.9059648 181.708724,83.9186369 C184.812857,88.7884602 185.615045,98.5180348 183.854715,109.945395 C182.008286,121.932728 177.701684,133.434328 172.039419,141.501369 C158.45291,160.375367 148.68857,189.821739 145.439855,205.010026 C144.230725,210.648897 140.878041,214.733102 135.743908,216.821422 C126.808887,220.455474 113.592767,217.612889 101.253401,209.403215 C90.141198,202.043327 77.5459702,193.701418 68.468153,183.320411 C63.7627311,177.939351 60.3060777,172.413709 57.9013009,166.428003 C55.2213304,159.757887 53.901083,152.679528 53.8650187,144.78891 C53.7859046,137.949844 56.3354261,127.481275 61.2379023,114.515819 C65.947223,102.061275 72.6355339,87.9589804 80.0704742,74.8068672 C86.8827359,62.7565035 94.0793591,51.8787182 101.08835,43.0137131" stroke="url(#linearGradient-38)"></path>
                    <path d="M104.694784,48.5879282 C105.500221,47.5690294 106.302084,46.5819711 107.100698,45.626266 C115.351148,35.7511344 122.823127,29.6625963 129.309023,27.5296016 C135.653748,25.4432307 140.886164,27.2461229 144.861039,32.8880805 C157.526771,49.7778891 165.450529,64.3573054 171.236257,75.0027843 C173.729245,79.5899412 175.882384,83.551333 177.769913,86.4710826 C180.842693,91.2382363 181.813668,100.325638 180.367358,110.780074 C178.858992,121.681577 174.997345,132.32933 169.77224,139.993165 C164.437641,147.51258 159.083711,157.70027 154.287316,169.457083 C150.437691,178.893919 147.104988,188.962531 145.143543,197.081556 C143.931326,202.083453 140.815497,205.69736 136.132656,207.531768 C127.963433,210.73191 116.011028,208.152172 104.939762,200.79927 C93.2893551,193.119515 83.0160537,186.040019 75.283014,177.164617 C71.0280715,172.281148 67.8932354,167.265118 65.6996462,161.830124 C63.2586426,155.782037 62.0358665,149.370869 61.9614635,142.230129 C61.8253287,135.956233 64.0479968,126.399832 68.3890389,114.595908 C72.542124,103.303383 78.4844554,90.4925816 85.1215939,78.5239312 C91.4503986,67.1108666 98.1684382,56.8422763 104.694784,48.5879282" stroke="url(#linearGradient-39)"></path>
                    <path d="M108.260606,54.1756269 C108.661537,53.6687767 109.061331,53.1710238 109.460151,52.6822058 C116.699337,43.8121646 123.257686,38.3206376 128.952928,36.3596796 C134.394095,34.4864457 138.897426,35.9322684 142.33751,40.6571845 C153.891745,55.0328861 161.900466,68.8219735 167.748088,78.8904229 C170.066927,82.882843 172.069473,86.3308865 173.831265,89.0236907 C176.919965,93.7614406 178.030974,101.99532 176.879839,111.614589 C175.704499,121.4353 172.287484,131.229205 167.504897,138.484961 C157.676064,152.588555 148.870192,174.63589 144.847068,189.153574 C143.63144,193.521746 140.749867,196.665517 136.514418,198.245525 C129.111643,201.007209 118.425389,198.688856 108.62596,192.195325 L108.62661,192.19565 C98.673014,185.672715 89.1541397,179.143932 82.097875,171.008824 C78.2935743,166.622783 75.4805556,162.116527 73.498154,157.232245 C71.2961173,151.806511 70.1706499,146.062372 70.0577457,139.671673 C69.8645903,133.961323 71.7599177,125.315628 75.5390384,114.671773 C79.1367001,104.53948 84.3328895,93.019035 90.1707642,82.2327102 C96.0011662,71.4598689 102.229575,61.8037226 108.260606,54.1756269" stroke="url(#linearGradient-40)"></path>
                    <path d="M111.771518,59.7802206 C111.786139,59.7613761 111.800759,59.7428566 111.815705,59.7241746 C118.043302,51.8584117 123.687859,46.9630834 128.592122,45.1738372 C133.132655,43.5174767 136.908202,44.6115909 139.813818,48.4258012 C150.512419,60.4888362 158.816965,73.8740679 164.88081,83.6475045 C166.779549,86.7079376 168.419502,89.3511939 169.892616,91.5764613 C172.953699,96.218202 174.22911,103.825991 173.392157,112.448943 C172.543183,121.196008 169.571124,130.136066 165.237717,136.976757 C161.051004,143.119716 156.83505,150.930733 152.704384,160.196182 C149.597164,167.166185 146.625105,174.831319 144.550431,181.22608 C143.330904,184.964587 140.680824,187.640334 136.885946,188.964643 C130.250107,191.280721 120.834065,189.221804 112.312321,183.591381 C103.969924,178.164997 95.2906012,172.247683 88.912736,164.853031 C85.5590771,160.964742 83.0678758,156.968099 81.2966618,152.634529 C79.3334295,147.831149 78.3055958,142.754199 78.1541905,137.113216 C77.6575748,126.908957 84.5145108,106.339448 95.2166855,85.9312546 C100.528703,75.8017232 106.252374,66.7606202 111.771518,59.7802206" stroke="url(#linearGradient-41)"></path>
                    <path d="M142.500287,175.892293 C143.128651,175.097416 143.641674,174.201493 144.030747,173.21216 C145.346121,169.844368 148.091559,163.060048 151.697019,155.463631 C155.481825,147.489512 159.206849,140.719326 162.768447,135.340865 C166.679479,128.867153 169.130229,121.026408 169.666321,113.266726 C170.197376,105.586971 168.808412,98.8374155 165.755614,94.2619551 C164.869114,92.9384588 163.893914,91.4559219 162.861207,89.8861483 C156.287912,79.893564 147.285148,66.2081209 137.113866,56.3550828 L137.104281,56.3446859 C134.805586,53.5198082 131.84636,52.7936478 128.308968,54.1861863 C124.29413,55.7668442 119.468493,60.1598709 114.352555,66.891394 C109.698143,73.0156716 104.897525,80.9108383 100.469571,89.7233714 C96.1810005,98.2587615 92.5812269,106.957091 90.0594846,114.878087 C87.4170405,123.178247 86.182243,129.978162 86.4889523,134.542251 C86.8448846,143.705193 89.926274,151.554386 95.9088934,158.541771 C101.583341,165.169325 109.321255,170.402553 116.128968,174.787457 L116.129942,174.788107 C123.306747,179.510911 131.367939,181.30227 137.1678,179.462988 C139.390631,178.758109 141.194498,177.54378 142.500287,175.892293" stroke="url(#linearGradient-42)"></path>
                    <path d="M142.742665,166.892291 C143.134012,166.397299 143.474349,165.858446 143.760589,165.278005 C144.090854,164.603667 144.446949,163.872633 144.826762,163.093188 C148.405579,155.748896 154.395184,143.456804 160.517999,133.848744 C167.615202,121.402322 168.158766,106.166599 161.836622,96.8033541 C156.734005,89.2730545 144.784037,71.6382412 134.619578,64.1204504 L134.610968,64.1141148 L134.603658,64.1059922 C132.832281,62.1471461 130.581672,61.746377 127.91486,62.9150566 C124.67508,64.3345621 120.784679,68.1232674 116.665384,73.8709813 C112.881877,79.1495338 109.013083,85.8945405 105.477478,93.3770792 C98.1281501,108.930395 93.8436413,124.083267 94.5623289,131.981033 C95.5233949,149.369407 107.558001,158.420907 119.802007,166.202032 L119.803307,166.202844 C125.688942,170.053444 132.471963,171.591702 137.505213,170.217196 C139.706437,169.616123 141.486911,168.480259 142.742665,166.892291" stroke="url(#linearGradient-43)"></path>
                    <path d="M121.548041,76.8222466 C123.630026,74.1888999 125.612753,72.3255755 127.376169,71.4117831 C129.275558,70.4276489 130.905926,70.5293439 132.222112,71.7139438 C135.597702,73.0055996 140.0869,76.8107125 145.566568,83.0246636 C149.558013,87.5513883 154.118041,93.4599297 158.077158,99.2352604 C164.416522,108.512081 164.550383,120.929424 158.435365,132.452144 C156.092645,136.333447 153.725232,140.429511 151.436121,144.390903 C148.475271,149.513989 145.678822,154.352946 143.654183,157.448956 C141.941127,160.048026 138.826273,161.470293 134.885512,161.455464 C131.150091,161.441214 126.954119,160.10196 123.372377,157.780358 C115.065882,152.604313 111.518905,148.971724 109.356994,146.385326 C105.214306,141.429078 102.952649,135.885891 102.443362,129.438984 C101.604948,122.608528 104.605761,110.155933 110.274848,96.9448498 C113.896228,88.5057938 117.875814,81.4669115 121.548041,76.8222466" stroke="url(#linearGradient-44)"></path>
                    <path d="M124.272848,82.530972 C125.133682,81.4420563 125.959425,80.6008799 126.727173,80.0485432 C127.850041,79.2408319 128.839374,79.0468642 129.668366,79.4715137 C132.746832,78.7008414 137.802663,82.9085104 141.50803,86.5818749 C145.686295,90.7234259 150.407962,96.4082708 154.138672,101.788356 C157.3445,106.422461 159.078837,111.000683 159.44078,115.784732 C159.810359,120.670313 158.7398,125.628998 156.167698,130.944102 C151.868568,138.675355 146.838242,145.967824 143.349911,149.525685 C141.642378,151.251251 138.960133,152.124268 135.79703,151.984396 C132.837805,151.85346 129.653096,150.830013 127.059225,149.176739 C120.086461,144.966145 111.907653,138.626619 110.539807,126.881827 C109.589625,121.194708 111.31714,111.407301 115.161566,100.704801 C117.970848,92.8838749 121.325482,86.2587578 124.272848,82.530972" stroke="url(#linearGradient-45)"></path>
                </g>
            </g>
            <text id="cash-card" mask="url(#mask-3)" font-family="Montserrat-ExtraBold, Montserrat" font-size="16" font-weight="600" line-spacing="18" fill="#FFFFFF">
                <tspan x="121.883904" y="30">CASH CARD</tspan>
            </text>
            <g id="logo" mask="url(#mask-3)">
                <g transform="translate(11.883904, 15.000000)">
                    <mask id="mask-47" fill="white">
                        <use xlink:href="#path-46"></use>
                    </mask>
                    <use id="Combined-Shape" stroke="none" fill="#FFFFFF" fill-rule="evenodd" xlink:href="#path-46"></use>
                </g>
            </g>
        </g>
    </g>
</svg>