<?xml version="1.0" encoding="UTF-8"?>
<svg width="36px" height="36px" viewBox="0 0 36 36" version="1.1" xmlns="http://www.w3.org/2000/svg" xmlns:xlink="http://www.w3.org/1999/xlink">
    <title>Status Icon</title>
    <g id="Wallet" stroke="none" stroke-width="1" fill="none" fill-rule="evenodd">
        <g id="Wallet---My-Rewards-Copy-Option-B-Full" transform="translate(-32.000000, -435.000000)">
            <g id="Cards" transform="translate(5.000000, 82.000000)">
                <g id="my-rewards-status" transform="translate(11.000000, 339.000000)">
                    <g id="laurel-status-icon" transform="translate(16.000000, 14.000000)">
                        <rect id="Rectangle" fill="#AD9751" x="0.486486486" y="0.486486486" width="35.027027" height="35.027027" rx="17.5135135"></rect>
                        <g id="Atom/Logo/Caesars-Laurel" transform="translate(4.378378, 6.381558)" fill="#FFFFFF">
                            <path d="M13.1654576,20.3885227 C10.2279949,20.3773049 8.5084655,19.867696 8.56375326,16.2154989 C11.1454512,17.0504242 10.6670919,19.6457437 13.1654576,20.3885227 M10.6118041,6.07131701 C8.59981049,7.89020413 6.5894194,6.17868744 4.69841781,7.97113259 C6.17596312,5.43270334 7.47642734,4.19874467 10.6118041,6.07131701 M4.77558029,7.14333863 C5.16259459,4.36052146 3.4198283,2.83650238 7.64493482,0.00080127186 C9.56398092,3.5792814 6.34527186,4.17542766 4.77558029,7.14333863 M8.03579523,7.78107091 C7.20167122,10.3643714 4.6055504,9.88521081 3.86437393,12.3835765 C3.87398919,9.4469151 4.38199555,7.72738569 8.03579523,7.78107091 M3.51734308,11.7901545 C2.46126677,9.18762353 0.191263593,8.73811002 2.43001717,4.17005914 C5.88269762,6.31025628 3.39234467,8.43603052 3.51734308,11.7901545 M-9.39510614e-13,10.38873 C4.05924324,10.5145297 2.96550715,13.6018302 4.74993959,16.4431402 C2.53522417,14.7188032 0.3445469,15.4647873 -9.39510614e-13,10.38873 M1.00319237,16.9894474 C4.5816725,15.0687987 5.17781876,18.2891103 8.14572973,19.8571994 C5.36211129,19.4717876 3.83969475,21.2121501 1.00319237,16.9894474 M5.34760827,16.6255898 C3.88769094,14.0743402 3.4702283,12.3307727 6.66009157,10.5511479 C7.22979587,13.2049603 4.74104547,14.0903657 5.34760827,16.6255898 M6.85231669,13.6391695 C8.67200509,15.6503618 6.95888585,17.6615542 8.75213227,19.5533571 C6.21450429,18.0750105 4.97974436,16.7745463 6.85231669,13.6391695 M5.17389253,22.2023618 C7.31248712,18.7496814 9.43986391,21.2408356 12.7923854,21.1158372 C10.1898544,22.1727148 9.74034086,24.4419167 5.17389253,22.2023618 M13.5469431,20.3885227 C16.4844057,20.3773049 18.2031339,19.867696 18.1486474,16.2138963 C15.5669494,17.0488216 16.0445075,19.6441412 13.5469431,20.3885227 M16.1005965,6.07131701 C18.1117889,7.88940286 20.12218,6.17868744 22.0139828,7.97113259 C20.5356362,5.43190207 19.2359733,4.19874467 16.1005965,6.07131701 M21.9364197,7.14333863 C21.5502067,4.36052146 23.292973,2.83570111 19.0686677,-5.67516357e-14 C17.1480191,3.57848013 20.3675294,4.17542766 21.9364197,7.14333863 M18.6758041,7.78026963 C19.5099281,10.3635701 22.1068502,9.88521081 22.8480267,12.3835765 C22.8376102,9.4469151 22.3296038,7.72738569 18.6758041,7.78026963 M23.1942563,11.7901545 C24.2511339,9.18682226 26.521137,8.73730874 24.2815822,4.16925787 C20.8289017,6.30945501 23.3192547,8.43603052 23.1942563,11.7901545 M26.7127211,10.38873 C22.6534779,10.5145297 23.747214,13.6018302 21.9627816,16.4431402 C24.177497,14.7180019 26.3681742,15.4647873 26.7127211,10.38873 M25.7096089,16.9886461 C22.1311288,15.0679975 21.5341812,18.2891103 18.5670715,19.8571994 C21.35069,19.4717876 22.8731065,21.2113488 25.7096089,16.9886461 M21.3643917,16.6255898 C22.8243091,14.0743402 23.2433742,12.3299714 20.053511,10.5511479 C19.4830054,13.204159 21.9717558,14.0903657 21.3643917,16.6255898 M19.8612057,13.6383682 C18.0415173,15.6495606 19.753034,17.6615542 17.9605889,19.5525558 C20.4990181,18.0734079 21.7329768,16.7745463 19.8612057,13.6383682 M21.53971,22.2015606 C19.4003141,18.7496814 17.2729374,21.2408356 13.9196146,21.1150359 C16.5221456,22.1727148 16.9724604,24.4411154 21.53971,22.2015606" id="caesars_laurel"></path>
                        </g>
                    </g>
                </g>
            </g>
        </g>
    </g>
</svg>