<?xml version="1.0" encoding="UTF-8"?>
<svg width="47px" height="48px" viewBox="0 0 47 48" version="1.1" xmlns="http://www.w3.org/2000/svg" xmlns:xlink="http://www.w3.org/1999/xlink">
    <title>laurel status icon</title>
    <g id="Wallet" stroke="none" stroke-width="1" fill="none" fill-rule="evenodd">
        <g id="Rewards-Tiers-Icons" transform="translate(-32.000000, -212.000000)">
            <g id="laurel-status-icon" transform="translate(32.067367, 212.648649)">
                <rect id="Rectangle" stroke="#E6E7E8" fill="#FFFFFF" x="0.5" y="0.5" width="45.7027027" height="45.7027027" rx="22.8513514"></rect>
                <g id="Atom/Logo/Caesars-Laurel" transform="translate(5.189189, 7.860095)" fill="#BEC0C5">
                    <path d="M17.5539434,27.184697 C13.6373266,27.1697399 11.3446207,26.4902614 11.4183377,21.6206652 C14.8606016,22.7338989 14.2227892,26.194325 17.5539434,27.184697 M14.1490722,8.09508935 C11.466414,10.5202722 8.78589253,8.23824992 6.26455707,10.6281768 C8.23461749,7.24360445 9.96856979,5.59832623 14.1490722,8.09508935 M6.36744038,9.52445151 C6.88345946,5.81402862 4.55977107,3.78200318 10.1932464,0.00106836248 C12.7519746,4.7723752 8.46036248,5.56723688 6.36744038,9.52445151 M10.7143936,10.3747612 C9.6022283,13.8191618 6.14073386,13.1802811 5.15249857,16.5114353 C5.16531892,12.5958868 5.84266073,10.3031809 10.7143936,10.3747612 M4.68979078,15.720206 C3.28168903,12.2501647 0.255018124,11.6508134 3.24002289,5.56007886 C7.84359682,8.41367504 4.52312623,11.2480407 4.68979078,15.720206 M-1.25253279e-12,13.8516401 C5.41232432,14.019373 3.95400954,18.1357736 6.33325278,21.924187 C3.38029889,19.6250709 0.459395866,20.6197164 -1.25253279e-12,13.8516401 M1.33758983,22.6525965 C6.10889666,20.0917316 6.90375835,24.3854804 10.860973,26.4762658 C7.14948172,25.9623835 5.119593,28.2828668 1.33758983,22.6525965 M7.13014436,22.1674531 C5.18358792,18.765787 4.62697107,16.4410302 8.8801221,14.0681971 C9.63972782,17.6066137 6.32139396,18.7871542 7.13014436,22.1674531 M9.13642226,18.1855593 C11.5626734,20.8671491 9.27851447,23.548739 11.6695097,26.0711428 C8.28600572,24.100014 6.63965914,22.3660617 9.13642226,18.1855593 M6.89852337,29.6031491 C9.74998283,24.9995752 12.5864852,28.3211141 17.0565138,28.1544496 C13.5864725,29.5636197 12.9871211,32.5892223 6.89852337,29.6031491 M18.0625908,27.184697 C21.9792076,27.1697399 24.2708452,26.4902614 24.1981965,21.6185285 C20.7559326,22.7317622 21.3926766,26.1921882 18.0625908,27.184697 M21.467462,8.09508935 C24.1490518,10.5192038 26.8295733,8.23824992 29.3519771,10.6281768 C27.3808483,7.24253609 25.6479644,5.59832623 21.467462,8.09508935 M29.2485596,9.52445151 C28.7336089,5.81402862 31.0572973,3.78093482 25.4248903,-7.56688476e-14 C22.8640254,4.77130684 27.1567059,5.56723688 29.2485596,9.52445151 M24.9010722,10.3736928 C26.0132375,13.8180935 29.4758003,13.1802811 30.4640356,16.5114353 C30.4501469,12.5958868 29.7728051,10.3031809 24.9010722,10.3736928 M30.925675,15.720206 C32.3348452,12.2490963 35.3615161,11.649745 32.3754429,5.55901049 C27.771869,8.41260668 31.0923396,11.2480407 30.925675,15.720206 M35.6169615,13.8516401 C30.2046372,14.019373 31.662952,18.1357736 29.2837087,21.924187 C32.2366626,19.6240025 35.1575657,20.6197164 35.6169615,13.8516401 M34.2794785,22.6515281 C29.5081717,20.0906633 28.7122417,24.3854804 24.7560954,26.4762658 C28.4675866,25.9623835 30.4974754,28.2817984 34.2794785,22.6515281 M28.4858556,22.1674531 C30.4324121,18.765787 30.9911657,16.4399618 26.7380146,14.0681971 C25.9773405,17.6055453 29.2956744,18.7871542 28.4858556,22.1674531 M26.4816076,18.1844909 C24.0553564,20.8660808 26.3373787,23.548739 23.9474518,26.0700744 C27.3320242,24.0978773 28.9773024,22.3660617 26.4816076,18.1844909 M28.7196134,29.6020808 C25.8670855,24.9995752 23.0305831,28.3211141 18.5594862,28.1533812 C22.0295275,29.5636197 22.6299472,32.5881539 28.7196134,29.6020808" id="caesars_laurel"></path>
                </g>
            </g>
        </g>
    </g>
</svg>